<?xml version="1.0" encoding="UTF-8" standalone="no"?>
<!DOCTYPE svg PUBLIC "-//W3C//DTD SVG 1.1//EN" "http://www.w3.org/Graphics/SVG/1.1/DTD/svg11.dtd">
<svg width="100%" height="100%" viewBox="0 0 1000 1000" version="1.1" xmlns="http://www.w3.org/2000/svg" xmlns:xlink="http://www.w3.org/1999/xlink" xml:space="preserve" xmlns:serif="http://www.serif.com/" style="fill-rule:evenodd;clip-rule:evenodd;stroke-linejoin:round;stroke-miterlimit:2;">
    <rect id="Artboard1" x="0" y="0" width="1000" height="1000" style="fill:none;"/>
    <g id="Artboard11" serif:id="Artboard1">
        <g transform="matrix(1.01014,0,0,1.00838,0.437064,-1.24346)">
            <rect x="49.065" y="50.818" width="890.966" height="892.523" style="fill:rgb(228,203,63);"/>
        </g>
        <g transform="matrix(0.698404,0.698404,-1.37564,1.37564,878.779,-10.6187)">
            <rect x="49.533" y="50.477" width="151.869" height="514.019" style="fill:rgb(89,144,184);"/>
        </g>
        <g transform="matrix(6.04787e-17,0.987692,-1.75091,1.07212e-16,1038.38,1.0769)">
            <rect x="49.533" y="50.477" width="151.869" height="514.019" style="fill:rgb(89,144,184);"/>
        </g>
        <g transform="matrix(6.04787e-17,0.987692,-1.75091,1.07212e-16,1038.38,751.077)">
            <rect x="49.533" y="50.477" width="151.869" height="514.019" style="fill:rgb(17,36,68);"/>
        </g>
        <g transform="matrix(1.15231,0,0,1.75091,-7.07694,-38.3807)">
            <rect x="49.533" y="50.477" width="151.869" height="514.019" style="fill:rgb(17,36,68);"/>
        </g>
    </g>
</svg>
